<svg width="32" height="32" viewBox="0 0 32 32" fill="none" xmlns="http://www.w3.org/2000/svg">
<path fill-rule="evenodd" clip-rule="evenodd" d="M26.3333 16C26.3333 15.4477 25.8856 15 25.3333 15H6.66663C6.11434 15 5.66663 15.4477 5.66663 16C5.66663 16.5523 6.11434 17 6.66663 17H25.3333C25.8856 17 26.3333 16.5523 26.3333 16Z" fill="black"/>
<path fill-rule="evenodd" clip-rule="evenodd" d="M26.3333 9.33334C26.3333 8.78106 25.8856 8.33334 25.3333 8.33334H6.66663C6.11434 8.33334 5.66663 8.78106 5.66663 9.33334C5.66663 9.88563 6.11434 10.3333 6.66663 10.3333H25.3333C25.8856 10.3333 26.3333 9.88563 26.3333 9.33334Z" fill="black"/>
<path fill-rule="evenodd" clip-rule="evenodd" d="M26.3333 22.6667C26.3333 22.1144 25.8856 21.6667 25.3333 21.6667H6.66663C6.11434 21.6667 5.66663 22.1144 5.66663 22.6667C5.66663 23.219 6.11434 23.6667 6.66663 23.6667H25.3333C25.8856 23.6667 26.3333 23.219 26.3333 22.6667Z" fill="black"/>
</svg>
