<svg width="32" height="32" viewBox="0 0 32 32" fill="none" xmlns="http://www.w3.org/2000/svg">
<path d="M16.0001 1.66669C16.5524 1.66669 17.0001 2.1144 17.0001 2.66669V4.00002C17.0001 4.55231 16.5524 5.00002 16.0001 5.00002C15.4478 5.00002 15.0001 4.55231 15.0001 4.00002V2.66669C15.0001 2.1144 15.4478 1.66669 16.0001 1.66669Z" fill="black"/>
<path d="M16.0001 8.33335C11.7659 8.33335 8.33341 11.7658 8.33341 16C8.33341 20.2342 11.7659 23.6667 16.0001 23.6667C20.2343 23.6667 23.6667 20.2342 23.6667 16C23.6667 11.7658 20.2343 8.33335 16.0001 8.33335Z" fill="black"/>
<path d="M7.27912 5.86485C6.88859 5.47433 6.25543 5.47433 5.8649 5.86485C5.47438 6.25538 5.47438 6.88854 5.8649 7.27907L6.80771 8.22188C7.19824 8.6124 7.8314 8.6124 8.22193 8.22188C8.61245 7.83135 8.61245 7.19819 8.22193 6.80766L7.27912 5.86485Z" fill="black"/>
<path d="M30.3334 16C30.3334 16.5523 29.8857 17 29.3334 17H28.0001C27.4478 17 27.0001 16.5523 27.0001 16C27.0001 15.4477 27.4478 15 28.0001 15H29.3334C29.8857 15 30.3334 15.4477 30.3334 16Z" fill="black"/>
<path d="M26.1352 7.27905C26.5258 6.88853 26.5258 6.25537 26.1352 5.86484C25.7447 5.47432 25.1116 5.47432 24.721 5.86484L23.7782 6.80765C23.3877 7.19818 23.3877 7.83134 23.7782 8.22186C24.1687 8.61239 24.8019 8.61239 25.1924 8.22186L26.1352 7.27905Z" fill="black"/>
<path d="M16.0001 27C16.5524 27 17.0001 27.4477 17.0001 28V29.3334C17.0001 29.8856 16.5524 30.3334 16.0001 30.3334C15.4478 30.3334 15.0001 29.8856 15.0001 29.3334V28C15.0001 27.4477 15.4478 27 16.0001 27Z" fill="black"/>
<path d="M25.1925 23.7782C24.802 23.3877 24.1688 23.3877 23.7783 23.7782C23.3878 24.1687 23.3878 24.8019 23.7783 25.1924L24.7211 26.1352C25.1116 26.5257 25.7448 26.5257 26.1353 26.1352C26.5259 25.7447 26.5259 25.1115 26.1353 24.721L25.1925 23.7782Z" fill="black"/>
<path d="M5.00008 16C5.00008 16.5523 4.55237 17 4.00008 17H2.66675C2.11446 17 1.66675 16.5523 1.66675 16C1.66675 15.4477 2.11446 15 2.66675 15H4.00008C4.55237 15 5.00008 15.4477 5.00008 16Z" fill="black"/>
<path d="M8.22184 25.1924C8.61236 24.8019 8.61236 24.1687 8.22184 23.7782C7.83131 23.3876 7.19815 23.3876 6.80762 23.7782L5.86481 24.721C5.47429 25.1115 5.47429 25.7447 5.86481 26.1352C6.25534 26.5257 6.8885 26.5257 7.27903 26.1352L8.22184 25.1924Z" fill="black"/>
</svg>
