<svg width="123" height="48" viewBox="0 0 123 48" fill="none" xmlns="http://www.w3.org/2000/svg">
<path d="M49.104 27.656C49.104 28.2107 49.2747 28.6053 49.616 28.84C49.9787 29.0747 50.48 29.192 51.12 29.192C51.44 29.192 51.7707 29.1707 52.112 29.128C52.4533 29.064 52.752 28.9893 53.008 28.904C53.2 29.1387 53.36 29.4053 53.488 29.704C53.6373 29.9813 53.712 30.3227 53.712 30.728C53.712 31.5387 53.4027 32.2 52.784 32.712C52.1867 33.224 51.12 33.48 49.584 33.48C47.7067 33.48 46.256 33.0533 45.232 32.2C44.2293 31.3467 43.728 29.96 43.728 28.04V14.344C43.9627 14.28 44.2933 14.216 44.72 14.152C45.168 14.0667 45.6373 14.024 46.128 14.024C47.0667 14.024 47.792 14.1947 48.304 14.536C48.8373 14.856 49.104 15.5493 49.104 16.616V18.664H53.296C53.424 18.8987 53.5413 19.1973 53.648 19.56C53.776 19.9013 53.84 20.2853 53.84 20.712C53.84 21.4587 53.6693 22.0027 53.328 22.344C53.008 22.664 52.5707 22.824 52.016 22.824H49.104V27.656ZM65.3405 32.52C65.0418 32.776 64.6365 32.9787 64.1245 33.128C63.6125 33.2987 63.0045 33.384 62.3005 33.384C61.4258 33.384 60.6685 33.256 60.0285 33C59.3885 32.7653 58.9618 32.424 58.7485 31.976C58.5138 31.464 58.2365 30.6533 57.9165 29.544C57.6178 28.4347 57.3192 27.2187 57.0205 25.896C56.7218 24.5733 56.4338 23.2293 56.1565 21.864C55.9005 20.4987 55.6978 19.2933 55.5485 18.248C55.8472 17.9493 56.2418 17.6933 56.7325 17.48C57.2445 17.2453 57.7992 17.128 58.3965 17.128C59.1432 17.128 59.7512 17.2987 60.2205 17.64C60.7112 17.96 61.0098 18.5253 61.1165 19.336C61.3298 20.9573 61.5112 22.3013 61.6605 23.368C61.8098 24.4133 61.9272 25.2773 62.0125 25.96C62.1192 26.6213 62.1938 27.1333 62.2365 27.496C62.3005 27.8373 62.3538 28.1147 62.3965 28.328H62.5245C62.5885 27.9867 62.6952 27.496 62.8445 26.856C63.0152 26.1947 63.2072 25.448 63.4205 24.616C63.6338 23.784 63.8578 22.888 64.0925 21.928C64.3272 20.9467 64.5618 19.976 64.7965 19.016C65.2232 18.7813 65.6392 18.6 66.0445 18.472C66.4712 18.344 66.9938 18.28 67.6125 18.28C68.3592 18.28 68.9992 18.3973 69.5325 18.632C70.0658 18.8667 70.4072 19.2293 70.5565 19.72C70.8125 20.6587 71.0578 21.576 71.2925 22.472C71.5272 23.3467 71.7405 24.168 71.9325 24.936C72.1245 25.6827 72.2952 26.3547 72.4445 26.952C72.5938 27.528 72.7005 27.9867 72.7645 28.328H72.9245C73.1592 26.6853 73.3832 24.9787 73.5965 23.208C73.8312 21.4373 74.0445 19.6347 74.2365 17.8C74.6205 17.5653 75.0258 17.3947 75.4525 17.288C75.8792 17.1813 76.3058 17.128 76.7325 17.128C77.4792 17.128 78.0978 17.288 78.5885 17.608C79.0792 17.928 79.3245 18.4827 79.3245 19.272C79.3245 19.6133 79.2712 20.1253 79.1645 20.808C79.0578 21.4907 78.9192 22.2587 78.7485 23.112C78.5778 23.9653 78.3752 24.8613 78.1405 25.8C77.9272 26.7387 77.7032 27.6453 77.4685 28.52C77.2552 29.3947 77.0418 30.184 76.8285 30.888C76.6365 31.592 76.4658 32.136 76.3165 32.52C76.0178 32.776 75.5592 32.9787 74.9405 33.128C74.3218 33.2987 73.6605 33.384 72.9565 33.384C71.1645 33.384 70.1085 32.936 69.7885 32.04C69.6605 31.656 69.5005 31.176 69.3085 30.6C69.1165 30.0027 68.9138 29.352 68.7005 28.648C68.4872 27.944 68.2845 27.2187 68.0925 26.472C67.9005 25.704 67.7405 24.968 67.6125 24.264C67.4632 25.0107 67.2818 25.7893 67.0685 26.6C66.8552 27.3893 66.6312 28.168 66.3965 28.936C66.1832 29.6827 65.9805 30.376 65.7885 31.016C65.5965 31.6347 65.4472 32.136 65.3405 32.52ZM97.885 25.224C97.885 26.5467 97.6823 27.7307 97.277 28.776C96.8717 29.8 96.2957 30.664 95.549 31.368C94.8237 32.072 93.949 32.6053 92.925 32.968C91.901 33.3307 90.7597 33.512 89.501 33.512C88.2423 33.512 87.101 33.32 86.077 32.936C85.053 32.552 84.1677 32.008 83.421 31.304C82.6957 30.5787 82.1303 29.704 81.725 28.68C81.3197 27.656 81.117 26.504 81.117 25.224C81.117 23.9653 81.3197 22.824 81.725 21.8C82.1303 20.776 82.6957 19.912 83.421 19.208C84.1677 18.4827 85.053 17.928 86.077 17.544C87.101 17.16 88.2423 16.968 89.501 16.968C90.7597 16.968 91.901 17.1707 92.925 17.576C93.949 17.96 94.8237 18.5147 95.549 19.24C96.2957 19.944 96.8717 20.808 97.277 21.832C97.6823 22.856 97.885 23.9867 97.885 25.224ZM86.685 25.224C86.685 26.5253 86.9303 27.528 87.421 28.232C87.933 28.9147 88.637 29.256 89.533 29.256C90.429 29.256 91.1117 28.904 91.581 28.2C92.0717 27.496 92.317 26.504 92.317 25.224C92.317 23.944 92.0717 22.9627 91.581 22.28C91.0903 21.576 90.397 21.224 89.501 21.224C88.605 21.224 87.9117 21.576 87.421 22.28C86.9303 22.9627 86.685 23.944 86.685 25.224ZM115.739 30.184C115.632 31.1867 115.334 31.9547 114.843 32.488C114.374 33.0213 113.68 33.288 112.763 33.288C112.08 33.288 111.472 33.128 110.939 32.808C110.406 32.4667 109.83 31.9013 109.211 31.112L106.043 27.144V32.968C105.808 33.0107 105.456 33.064 104.987 33.128C104.539 33.2133 104.08 33.256 103.611 33.256C103.142 33.256 102.715 33.224 102.331 33.16C101.968 33.096 101.659 32.968 101.403 32.776C101.147 32.584 100.944 32.328 100.795 32.008C100.667 31.6667 100.603 31.2293 100.603 30.696V12.168C100.838 12.104 101.179 12.04 101.627 11.976C102.096 11.8907 102.566 11.848 103.035 11.848C103.504 11.848 103.92 11.88 104.283 11.944C104.667 12.008 104.987 12.136 105.243 12.328C105.499 12.52 105.691 12.7867 105.819 13.128C105.968 13.448 106.043 13.8747 106.043 14.408V22.856L111.547 17.224C112.656 17.224 113.542 17.4693 114.203 17.96C114.886 18.4507 115.227 19.0693 115.227 19.816C115.227 20.136 115.174 20.4347 115.067 20.712C114.96 20.968 114.79 21.2347 114.555 21.512C114.342 21.7893 114.054 22.088 113.691 22.408C113.35 22.7067 112.944 23.0587 112.475 23.464L110.619 25.064L115.739 30.184Z" fill="#2ACBEE"/>
<path d="M14.5892 17.6275C11.7724 13.872 12.5292 8.54441 16.2795 5.72795C20.0297 2.91148 25.3533 3.6727 28.1701 7.42817L32.6653 13.4215C32.9994 13.8669 32.9097 14.4989 32.4648 14.8329L26.4798 19.3277C22.7296 22.1442 17.4059 21.383 14.5892 17.6275Z" fill="#2ACBEE"/>
<path d="M33.0162 27.4907C34.6219 31.9024 32.3512 36.7791 27.9444 38.383L21.4505 40.7466C16.2233 42.6491 10.4418 39.9493 8.53716 34.7163L6.51582 29.1627C6.32535 28.6394 6.5947 28.0609 7.11741 27.8707L22.1295 22.4067C26.5363 20.8028 31.4105 23.0789 33.0162 27.4907Z" fill="#2ACBEE"/>
</svg>
