<svg width="32" height="32" viewBox="0 0 32 32" fill="none" xmlns="http://www.w3.org/2000/svg">
<path fill-rule="evenodd" clip-rule="evenodd" d="M10.3334 9.99998C10.3334 6.87037 12.8705 4.33331 16.0001 4.33331C19.1297 4.33331 21.6667 6.87037 21.6667 9.99998C21.6667 13.1296 19.1297 15.6666 16.0001 15.6666C12.8705 15.6666 10.3334 13.1296 10.3334 9.99998ZM16.0001 6.33331C13.975 6.33331 12.3334 7.97494 12.3334 9.99998C12.3334 12.025 13.975 13.6666 16.0001 13.6666C18.0251 13.6666 19.6667 12.025 19.6667 9.99998C19.6667 7.97494 18.0251 6.33331 16.0001 6.33331Z" fill="black"/>
<path fill-rule="evenodd" clip-rule="evenodd" d="M10.6667 19.6666C9.00989 19.6666 7.66675 21.0098 7.66675 22.6666V24.251C7.66675 24.2751 7.68423 24.2957 7.70804 24.2996C13.1997 25.1962 18.8004 25.1962 24.2921 24.2996C24.3159 24.2957 24.3334 24.2751 24.3334 24.251V22.6666C24.3334 21.0098 22.9903 19.6666 21.3334 19.6666H20.8789C20.8438 19.6666 20.8089 19.6722 20.7755 19.6831L19.6214 20.0599C17.2683 20.8283 14.7318 20.8283 12.3787 20.0599L11.2247 19.6831C11.1913 19.6722 11.1564 19.6666 11.1212 19.6666H10.6667ZM5.66675 22.6666C5.66675 19.9052 7.90532 17.6666 10.6667 17.6666H11.1212C11.3672 17.6666 11.6117 17.7055 11.8455 17.7819L12.9995 18.1587C14.9492 18.7954 17.0509 18.7954 19.0006 18.1587L20.1547 17.7819C20.3885 17.7055 20.6329 17.6666 20.8789 17.6666H21.3334C24.0948 17.6666 26.3334 19.9052 26.3334 22.6666V24.251C26.3334 25.2553 25.6056 26.1116 24.6144 26.2735C18.9093 27.2049 13.0909 27.2049 7.38578 26.2735C6.39459 26.1116 5.66675 25.2553 5.66675 24.251V22.6666Z" fill="black"/>
</svg>
