<svg width="32" height="32" viewBox="0 0 32 32" fill="none" xmlns="http://www.w3.org/2000/svg">
<path d="M16.0001 5C13.2387 5 11.0001 7.23858 11.0001 10C11.0001 12.7614 13.2387 15 16.0001 15C18.7615 15 21.0001 12.7614 21.0001 10C21.0001 7.23858 18.7615 5 16.0001 5Z" fill="black"/>
<path d="M10.6667 17.6667C7.90532 17.6667 5.66675 19.9052 5.66675 22.6667V24.251C5.66675 25.2554 6.39459 26.1117 7.38578 26.2735C13.0909 27.2049 18.9093 27.2049 24.6144 26.2735C25.6056 26.1117 26.3334 25.2554 26.3334 24.251V22.6667C26.3334 19.9052 24.0948 17.6667 21.3334 17.6667H20.8789C20.6329 17.6667 20.3885 17.7056 20.1547 17.7819L19.0006 18.1587C17.0509 18.7954 14.9492 18.7954 12.9995 18.1587L11.8455 17.7819C11.6117 17.7056 11.3672 17.6667 11.1212 17.6667H10.6667Z" fill="black"/>
</svg>
