<svg width="32" height="32" viewBox="0 0 32 32" fill="none" xmlns="http://www.w3.org/2000/svg">
<path d="M18.6668 23.3333L24.462 23.3333C27.7425 23.3333 30.5355 20.9468 31.0471 17.7064C31.1559 17.0175 31.1559 16.3158 31.0471 15.6269C30.5355 12.3866 27.7425 10 24.462 10L18.6668 10C20.5784 11.5897 21.7953 13.9861 21.7953 16.6667C21.7953 19.3473 20.5784 21.7436 18.6668 23.3333Z" fill="black"/>
<path fill-rule="evenodd" clip-rule="evenodd" d="M11.3334 25.3333C16.1199 25.3333 20.0001 21.4531 20.0001 16.6667C20.0001 11.8802 16.1199 8 11.3334 8C6.54695 8 2.66675 11.8802 2.66675 16.6667C2.66675 21.4531 6.54695 25.3333 11.3334 25.3333ZM9.92601 12.8745C9.92601 12.5542 9.73862 12.2678 9.45654 12.1571C8.92285 11.9476 8.33657 11.9476 7.80288 12.1571C7.52081 12.2678 7.33342 12.5542 7.33342 12.8745L7.33341 20.4589C7.33341 20.7791 7.52081 21.0655 7.80288 21.1762C8.33657 21.3857 8.92285 21.3857 9.45654 21.1762C9.73862 21.0655 9.92601 20.7791 9.92601 20.4589L9.92601 12.8745ZM15.1112 12.8745C15.1112 12.5542 14.9238 12.2678 14.6417 12.1571C14.108 11.9476 13.5218 11.9476 12.9881 12.1571C12.706 12.2678 12.5186 12.5542 12.5186 12.8745V20.4589C12.5186 20.7791 12.706 21.0655 12.9881 21.1762C13.5218 21.3857 14.108 21.3857 14.6417 21.1762C14.9238 21.0655 15.1112 20.7791 15.1112 20.4589L15.1112 12.8745Z" fill="black"/>
</svg>
