<svg width="32" height="32" viewBox="0 0 32 32" fill="none" xmlns="http://www.w3.org/2000/svg">
<path fill-rule="evenodd" clip-rule="evenodd" d="M22.0001 25.3333C26.7865 25.3333 30.6667 21.4531 30.6667 16.6667C30.6667 11.8802 26.7865 8 22.0001 8C17.2136 8 13.3334 11.8802 13.3334 16.6667C13.3334 21.4531 17.2136 25.3333 22.0001 25.3333ZM20.7455 12.2248C22.7293 13.0376 24.5885 14.209 26.2535 15.6952C26.8045 16.1869 26.8045 17.1464 26.2535 17.6382C24.5885 19.1243 22.7293 20.2957 20.7455 21.1085L20.383 21.257C19.6897 21.541 18.9573 20.9999 18.8634 20.1743C18.6012 17.8674 18.6012 15.4659 18.8634 13.1591C18.9573 12.3334 19.6897 11.7923 20.3831 12.0764L20.7455 12.2248Z" fill="black"/>
<path d="M15.1286 10H9.33341C6.05293 10 3.25996 12.3866 2.74833 15.6269C2.63955 16.3158 2.63955 17.0175 2.74833 17.7064C3.25996 20.9468 6.05292 23.3333 9.33341 23.3333H15.1286C13.2171 21.7436 12.0001 19.3473 12.0001 16.6667C12.0001 13.9861 13.2171 11.5897 15.1286 10Z" fill="black"/>
</svg>
