<svg width="32" height="32" viewBox="0 0 32 32" fill="none" xmlns="http://www.w3.org/2000/svg">
<path d="M16.0001 4.66669C9.74085 4.66669 4.66675 9.74079 4.66675 16C4.66675 22.2592 9.74085 27.3334 16.0001 27.3334C21.8903 27.3334 26.7303 22.8405 27.2812 17.0943C27.3069 16.8269 27.1695 16.5702 26.9327 16.4432C26.696 16.3162 26.4061 16.3438 26.1975 16.513C25.0513 17.4432 23.5916 18 22.0001 18C18.3182 18 15.3334 15.0153 15.3334 11.3334C15.3334 9.14655 16.3856 7.20567 18.0142 5.98891C18.2295 5.82803 18.3272 5.55357 18.2619 5.29284C18.1965 5.0321 17.981 4.8361 17.7153 4.79573C17.1556 4.71072 16.5828 4.66669 16.0001 4.66669Z" fill="black"/>
</svg>
