<svg width="42" height="42" viewBox="0 0 42 42" fill="none" xmlns="http://www.w3.org/2000/svg">
<path fill-rule="evenodd" clip-rule="evenodd" d="M38.0625 21C38.0625 21.4767 37.8041 21.9159 37.3874 22.1473L33.3933 24.3663C25.4983 28.7524 17.1758 32.3202 8.55539 35.014L7.39149 35.3778C6.99296 35.5023 6.55896 35.4298 6.22256 35.1825C5.88616 34.9352 5.6875 34.5425 5.6875 34.125L5.6875 24.0625C5.6875 23.3782 6.21323 22.8088 6.89533 22.7542L7.29316 22.7224C11.0582 22.4212 14.7943 21.845 18.4716 20.9995C14.7426 20.1421 10.9533 19.5619 7.13457 19.2645L6.89807 19.246C6.2148 19.1928 5.6875 18.6228 5.6875 17.9375L5.6875 7.87501C5.6875 7.45748 5.88616 7.06486 6.22256 6.81754C6.55896 6.57022 6.99296 6.49772 7.39148 6.62225L8.55537 6.98597C17.1758 9.67985 25.4983 13.2476 33.3933 17.6337L37.3874 19.8527C37.8041 20.0842 38.0625 20.5233 38.0625 21ZM34.0474 21L32.1185 19.9284C24.5449 15.7208 16.5698 12.2815 8.3125 9.66155L8.3125 16.7293C13.4401 17.1917 18.512 18.1478 23.4575 19.5846L23.9912 19.7396C24.5523 19.9026 24.9381 20.417 24.9375 21.0013C24.9369 21.5856 24.5502 22.0992 23.9887 22.2611L23.3052 22.4582C18.4079 23.8707 13.3876 24.8121 8.3125 25.2701L8.3125 32.3385C16.5698 29.7185 24.5449 26.2792 32.1185 22.0716L34.0474 21Z" fill="#2ACBEE"/>
</svg>
