<svg width="124" height="49" viewBox="0 0 124 49" fill="none" xmlns="http://www.w3.org/2000/svg">
<path d="M49.106 27.6572C49.106 28.2119 49.2766 28.6066 49.618 28.8412C49.9806 29.0759 50.482 29.1932 51.122 29.1932C51.442 29.1932 51.7726 29.1719 52.114 29.1292C52.4553 29.0652 52.754 28.9906 53.01 28.9052C53.202 29.1399 53.362 29.4066 53.49 29.7052C53.6393 29.9826 53.714 30.3239 53.714 30.7292C53.714 31.5399 53.4046 32.2012 52.786 32.7132C52.1886 33.2252 51.122 33.4812 49.586 33.4812C47.7086 33.4812 46.258 33.0546 45.234 32.2012C44.2313 31.3479 43.73 29.9612 43.73 28.0412V14.3452C43.9646 14.2812 44.2953 14.2172 44.722 14.1532C45.17 14.0679 45.6393 14.0252 46.13 14.0252C47.0686 14.0252 47.794 14.1959 48.306 14.5372C48.8393 14.8572 49.106 15.5506 49.106 16.6172V18.6652H53.298C53.426 18.8999 53.5433 19.1986 53.65 19.5612C53.778 19.9026 53.842 20.2866 53.842 20.7132C53.842 21.4599 53.6713 22.0039 53.33 22.3452C53.01 22.6652 52.5726 22.8252 52.018 22.8252H49.106V27.6572ZM65.3425 32.5212C65.0438 32.7772 64.6385 32.9799 64.1265 33.1292C63.6145 33.2999 63.0065 33.3852 62.3025 33.3852C61.4278 33.3852 60.6705 33.2572 60.0305 33.0012C59.3905 32.7666 58.9638 32.4252 58.7505 31.9772C58.5158 31.4652 58.2385 30.6546 57.9185 29.5452C57.6198 28.4359 57.3211 27.2199 57.0225 25.8972C56.7238 24.5746 56.4358 23.2306 56.1585 21.8652C55.9025 20.4999 55.6998 19.2946 55.5505 18.2492C55.8491 17.9506 56.2438 17.6946 56.7345 17.4812C57.2465 17.2466 57.8011 17.1292 58.3985 17.1292C59.1451 17.1292 59.7531 17.2999 60.2225 17.6412C60.7131 17.9612 61.0118 18.5266 61.1185 19.3372C61.3318 20.9586 61.5131 22.3026 61.6625 23.3692C61.8118 24.4146 61.9291 25.2786 62.0145 25.9612C62.1211 26.6226 62.1958 27.1346 62.2385 27.4972C62.3025 27.8386 62.3558 28.1159 62.3985 28.3292H62.5265C62.5905 27.9879 62.6971 27.4972 62.8465 26.8572C63.0171 26.1959 63.2091 25.4492 63.4225 24.6172C63.6358 23.7852 63.8598 22.8892 64.0945 21.9292C64.3291 20.9479 64.5638 19.9772 64.7985 19.0172C65.2251 18.7826 65.6411 18.6012 66.0465 18.4732C66.4731 18.3452 66.9958 18.2812 67.6145 18.2812C68.3611 18.2812 69.0011 18.3986 69.5345 18.6332C70.0678 18.8679 70.4091 19.2306 70.5585 19.7212C70.8145 20.6599 71.0598 21.5772 71.2945 22.4732C71.5291 23.3479 71.7425 24.1692 71.9345 24.9372C72.1265 25.6839 72.2971 26.3559 72.4465 26.9532C72.5958 27.5292 72.7025 27.9879 72.7665 28.3292H72.9265C73.1611 26.6866 73.3851 24.9799 73.5985 23.2092C73.8331 21.4386 74.0465 19.6359 74.2385 17.8012C74.6225 17.5666 75.0278 17.3959 75.4545 17.2892C75.8811 17.1826 76.3078 17.1292 76.7345 17.1292C77.4811 17.1292 78.0998 17.2892 78.5905 17.6092C79.0811 17.9292 79.3265 18.4839 79.3265 19.2732C79.3265 19.6146 79.2731 20.1266 79.1665 20.8092C79.0598 21.4919 78.9211 22.2599 78.7505 23.1132C78.5798 23.9666 78.3771 24.8626 78.1425 25.8012C77.9291 26.7399 77.7051 27.6466 77.4705 28.5212C77.2571 29.3959 77.0438 30.1852 76.8305 30.8892C76.6385 31.5932 76.4678 32.1372 76.3185 32.5212C76.0198 32.7772 75.5611 32.9799 74.9425 33.1292C74.3238 33.2999 73.6625 33.3852 72.9585 33.3852C71.1665 33.3852 70.1105 32.9372 69.7905 32.0412C69.6625 31.6572 69.5025 31.1772 69.3105 30.6012C69.1185 30.0039 68.9158 29.3532 68.7025 28.6492C68.4891 27.9452 68.2865 27.2199 68.0945 26.4732C67.9025 25.7052 67.7425 24.9692 67.6145 24.2652C67.4651 25.0119 67.2838 25.7906 67.0705 26.6012C66.8571 27.3906 66.6331 28.1692 66.3985 28.9372C66.1851 29.6839 65.9825 30.3772 65.7905 31.0172C65.5985 31.6359 65.4491 32.1372 65.3425 32.5212ZM97.887 25.2252C97.887 26.5479 97.6843 27.7319 97.279 28.7772C96.8736 29.8012 96.2976 30.6652 95.551 31.3692C94.8256 32.0732 93.951 32.6066 92.927 32.9692C91.903 33.3319 90.7616 33.5132 89.503 33.5132C88.2443 33.5132 87.103 33.3212 86.079 32.9372C85.055 32.5532 84.1696 32.0092 83.423 31.3052C82.6976 30.5799 82.1323 29.7052 81.727 28.6812C81.3216 27.6572 81.119 26.5052 81.119 25.2252C81.119 23.9666 81.3216 22.8252 81.727 21.8012C82.1323 20.7772 82.6976 19.9132 83.423 19.2092C84.1696 18.4839 85.055 17.9292 86.079 17.5452C87.103 17.1612 88.2443 16.9692 89.503 16.9692C90.7616 16.9692 91.903 17.1719 92.927 17.5772C93.951 17.9612 94.8256 18.5159 95.551 19.2412C96.2976 19.9452 96.8736 20.8092 97.279 21.8332C97.6843 22.8572 97.887 23.9879 97.887 25.2252ZM86.687 25.2252C86.687 26.5266 86.9323 27.5292 87.423 28.2332C87.935 28.9159 88.639 29.2572 89.535 29.2572C90.431 29.2572 91.1136 28.9052 91.583 28.2012C92.0736 27.4972 92.319 26.5052 92.319 25.2252C92.319 23.9452 92.0736 22.9639 91.583 22.2812C91.0923 21.5772 90.399 21.2252 89.503 21.2252C88.607 21.2252 87.9136 21.5772 87.423 22.2812C86.9323 22.9639 86.687 23.9452 86.687 25.2252ZM115.741 30.1852C115.634 31.1879 115.336 31.9559 114.845 32.4892C114.376 33.0226 113.682 33.2892 112.765 33.2892C112.082 33.2892 111.474 33.1292 110.941 32.8092C110.408 32.4679 109.832 31.9026 109.213 31.1132L106.045 27.1452V32.9692C105.81 33.0119 105.458 33.0652 104.989 33.1292C104.541 33.2146 104.082 33.2572 103.613 33.2572C103.144 33.2572 102.717 33.2252 102.333 33.1612C101.97 33.0972 101.661 32.9692 101.405 32.7772C101.149 32.5852 100.946 32.3292 100.797 32.0092C100.669 31.6679 100.605 31.2306 100.605 30.6972V12.1692C100.84 12.1052 101.181 12.0412 101.629 11.9772C102.098 11.8919 102.568 11.8492 103.037 11.8492C103.506 11.8492 103.922 11.8812 104.285 11.9452C104.669 12.0092 104.989 12.1372 105.245 12.3292C105.501 12.5212 105.693 12.7879 105.821 13.1292C105.97 13.4492 106.045 13.8759 106.045 14.4092V22.8572L111.549 17.2252C112.658 17.2252 113.544 17.4706 114.205 17.9612C114.888 18.4519 115.229 19.0706 115.229 19.8172C115.229 20.1372 115.176 20.4359 115.069 20.7132C114.962 20.9692 114.792 21.2359 114.557 21.5132C114.344 21.7906 114.056 22.0892 113.693 22.4092C113.352 22.7079 112.946 23.0599 112.477 23.4652L110.621 25.0652L115.741 30.1852Z" fill="url(#paint0_linear_322_346)"/>
<g filter="url(#filter0_i_322_346)">
<path d="M14.5897 17.6275C11.7729 13.872 12.5297 8.54438 16.28 5.72792C20.0302 2.91145 25.3538 3.67267 28.1706 7.42814L32.6658 13.4214C32.9999 13.8669 32.9101 14.4988 32.4653 14.8329L26.4803 19.3277C22.73 22.1441 17.4064 21.3829 14.5897 17.6275Z" fill="url(#paint1_linear_322_346)"/>
<path d="M33.0167 27.4906C34.6224 31.9024 32.3517 36.779 27.9449 38.383L21.451 40.7466C16.2238 42.6491 10.4423 39.9492 8.53765 34.7162L6.51631 29.1627C6.32584 28.6394 6.59519 28.0609 7.1179 27.8707L22.13 22.4067C26.5368 20.8028 31.411 23.0789 33.0167 27.4906Z" fill="url(#paint2_linear_322_346)"/>
</g>
<defs>
<filter id="filter0_i_322_346" x="6.45508" y="4.02759" width="27.0771" height="41.3285" filterUnits="userSpaceOnUse" color-interpolation-filters="sRGB">
<feFlood flood-opacity="0" result="BackgroundImageFix"/>
<feBlend mode="normal" in="SourceGraphic" in2="BackgroundImageFix" result="shape"/>
<feColorMatrix in="SourceAlpha" type="matrix" values="0 0 0 0 0 0 0 0 0 0 0 0 0 0 0 0 0 0 127 0" result="hardAlpha"/>
<feOffset dy="4"/>
<feGaussianBlur stdDeviation="10"/>
<feComposite in2="hardAlpha" operator="arithmetic" k2="-1" k3="1"/>
<feColorMatrix type="matrix" values="0 0 0 0 0 0 0 0 0 0 0 0 0 0 0 0 0 0 0.1 0"/>
<feBlend mode="normal" in2="shape" result="effect1_innerShadow_322_346"/>
</filter>
<linearGradient id="paint0_linear_322_346" x1="76.5" y1="11" x2="75" y2="38.5" gradientUnits="userSpaceOnUse">
<stop stop-color="#2ACBEE"/>
<stop offset="1" stop-color="#8C11C7"/>
</linearGradient>
<linearGradient id="paint1_linear_322_346" x1="14.0959" y1="6.13029" x2="26.0817" y2="39.0611" gradientUnits="userSpaceOnUse">
<stop stop-color="#2ACBEE"/>
<stop offset="1" stop-color="#8C11C7"/>
</linearGradient>
<linearGradient id="paint2_linear_322_346" x1="14.0959" y1="6.13029" x2="26.0817" y2="39.0611" gradientUnits="userSpaceOnUse">
<stop stop-color="#2ACBEE"/>
<stop offset="1" stop-color="#8C11C7"/>
</linearGradient>
</defs>
</svg>
