<svg width="42" height="42" viewBox="0 0 42 42" fill="none" xmlns="http://www.w3.org/2000/svg">
<path fill-rule="evenodd" clip-rule="evenodd" d="M21 6.5625C14.917 6.5625 10.0625 11.3177 10.0625 17.0904C10.0625 20.5984 11.4991 23.6239 14.0618 25.508C14.6267 25.9233 15.1099 26.5426 15.2949 27.3284C15.4468 27.9732 15.6206 28.759 15.7928 29.5917H26.2072C26.3794 28.759 26.5532 27.9732 26.7051 27.3284C26.8901 26.5426 27.3733 25.9233 27.9382 25.508C30.5009 23.6239 31.9375 20.5984 31.9375 17.0904C31.9375 11.3177 27.083 6.5625 21 6.5625ZM25.7053 32.2167H16.2947C16.488 33.3324 16.6395 34.3892 16.6854 35.1477C16.7338 35.9464 17.3307 36.6622 18.2109 36.8524L18.5538 36.9265C20.1646 37.2745 21.8354 37.2745 23.4462 36.9265L23.7891 36.8524C24.6693 36.6622 25.2662 35.9464 25.3146 35.1477C25.3605 34.3892 25.512 33.3324 25.7053 32.2167ZM7.4375 17.0904C7.4375 9.78453 13.5521 3.9375 21 3.9375C28.4479 3.9375 34.5625 9.78453 34.5625 17.0904C34.5625 21.3321 32.8063 25.187 29.4931 27.6229C29.342 27.734 29.2788 27.851 29.2602 27.9302C29.053 28.8098 28.8006 29.974 28.5705 31.1552C28.2506 32.7971 27.9902 34.3897 27.9348 35.3063C27.8121 37.3331 26.321 38.9909 24.3435 39.4182L24.0005 39.4923C22.0244 39.9192 19.9756 39.9192 17.9995 39.4923L17.6565 39.4182C15.679 38.9909 14.1879 37.3331 14.0652 35.3063C14.0098 34.3897 13.7494 32.7971 13.4295 31.1552C13.1994 29.974 12.947 28.8098 12.7398 27.9302C12.7212 27.851 12.658 27.734 12.5069 27.6229C9.19375 25.187 7.4375 21.3321 7.4375 17.0904Z" fill="#2ACBEE"/>
</svg>
