<svg width="20" height="21" viewBox="0 0 20 21" fill="none" xmlns="http://www.w3.org/2000/svg">
<path d="M17.8991 11.828H0.931117C0.847117 11.632 0.777117 11.436 0.721117 11.24C0.665117 11.016 0.637117 10.764 0.637117 10.484C0.637117 10.008 0.763117 9.658 1.01512 9.434C1.29512 9.182 1.65912 9.056 2.10712 9.056H19.0751C19.1311 9.224 19.1871 9.42 19.2431 9.644C19.3271 9.868 19.3691 10.106 19.3691 10.358C19.3691 10.806 19.2431 11.17 18.9911 11.45C18.7391 11.702 18.3751 11.828 17.8991 11.828ZM11.5991 2.504V19.934C11.4031 20.018 11.1931 20.088 10.9691 20.144C10.7451 20.2 10.4791 20.228 10.1711 20.228C9.61112 20.228 9.19112 20.102 8.91112 19.85C8.65912 19.598 8.53312 19.164 8.53312 18.548V1.118C8.75712 1.034 8.98112 0.963998 9.20512 0.907999C9.45712 0.852 9.75112 0.824 10.0871 0.824C10.6191 0.824 10.9971 0.949999 11.2211 1.202C11.4731 1.454 11.5991 1.888 11.5991 2.504Z" fill="#2ACBEE"/>
</svg>
